<svg xmlns="http://www.w3.org/2000/svg" xmlns:xlink="http://www.w3.org/1999/xlink" width="300" zoomAndPan="magnify" viewBox="0 0 224.87999 67.499998" height="90" preserveAspectRatio="xMidYMid meet" version="1.0"><defs><g/></defs><g fill="#ffffff" fill-opacity="1"><g transform="translate(16.247001, 44.223572)"><g><path d="M 4.859375 0 L 2.125 0 L 2.125 -21.890625 L 4.859375 -21.890625 Z M 4.859375 0 "/></g></g></g><g fill="#ffffff" fill-opacity="1"><g transform="translate(23.223142, 44.223572)"><g><path d="M 1.71875 0 L 1.71875 -15.78125 L 4.203125 -15.78125 L 4.203125 -13.25 L 4.265625 -13.25 C 4.703125 -14.101562 5.335938 -14.78125 6.171875 -15.28125 C 7.015625 -15.789062 8.046875 -16.046875 9.265625 -16.046875 C 10.421875 -16.046875 11.40625 -15.8125 12.21875 -15.34375 C 13.03125 -14.875 13.648438 -14.203125 14.078125 -13.328125 C 14.515625 -12.460938 14.734375 -11.429688 14.734375 -10.234375 L 14.734375 0 L 12.09375 0 L 12.09375 -9.765625 C 12.09375 -11.035156 11.789062 -12.007812 11.1875 -12.6875 C 10.582031 -13.375 9.675781 -13.71875 8.46875 -13.71875 C 7.632812 -13.71875 6.910156 -13.53125 6.296875 -13.15625 C 5.679688 -12.789062 5.203125 -12.273438 4.859375 -11.609375 C 4.523438 -10.941406 4.359375 -10.164062 4.359375 -9.28125 L 4.359375 0 Z M 1.71875 0 "/></g></g></g><g fill="#ffffff" fill-opacity="1"><g transform="translate(39.586743, 44.223572)"><g><path d="M 2.5625 -19.578125 L 5.203125 -19.578125 L 5.203125 -15.78125 L 8.265625 -15.78125 L 8.265625 -13.609375 L 5.203125 -13.609375 L 5.203125 -4.234375 C 5.203125 -3.515625 5.359375 -2.984375 5.671875 -2.640625 C 5.984375 -2.304688 6.476562 -2.140625 7.15625 -2.140625 C 7.3125 -2.140625 7.507812 -2.148438 7.75 -2.171875 C 7.988281 -2.191406 8.15625 -2.207031 8.25 -2.21875 L 8.25 0 C 8.09375 0.0390625 7.851562 0.0703125 7.53125 0.09375 C 7.207031 0.113281 6.890625 0.125 6.578125 0.125 C 5.617188 0.125 4.84375 -0.015625 4.25 -0.296875 C 3.65625 -0.585938 3.222656 -1.039062 2.953125 -1.65625 C 2.691406 -2.269531 2.5625 -3.082031 2.5625 -4.09375 L 2.5625 -13.609375 L 0.21875 -13.609375 L 0.21875 -15.78125 L 2.5625 -15.78125 Z M 2.5625 -19.578125 "/></g></g></g><g fill="#ffffff" fill-opacity="1"><g transform="translate(48.488781, 44.223572)"><g><path d="M 8.03125 -13.75 C 7.21875 -13.75 6.492188 -13.554688 5.859375 -13.171875 C 5.222656 -12.785156 4.710938 -12.253906 4.328125 -11.578125 C 3.953125 -10.898438 3.734375 -10.117188 3.671875 -9.234375 L 12.234375 -9.234375 C 12.210938 -10.117188 12.023438 -10.898438 11.671875 -11.578125 C 11.316406 -12.265625 10.828125 -12.796875 10.203125 -13.171875 C 9.585938 -13.554688 8.863281 -13.75 8.03125 -13.75 Z M 12.171875 -4.515625 L 14.765625 -4.515625 C 14.660156 -3.828125 14.421875 -3.191406 14.046875 -2.609375 C 13.671875 -2.023438 13.191406 -1.515625 12.609375 -1.078125 C 12.023438 -0.648438 11.359375 -0.316406 10.609375 -0.078125 C 9.867188 0.148438 9.066406 0.265625 8.203125 0.265625 C 6.703125 0.265625 5.40625 -0.0625 4.3125 -0.71875 C 3.226562 -1.382812 2.394531 -2.320312 1.8125 -3.53125 C 1.226562 -4.75 0.9375 -6.179688 0.9375 -7.828125 C 0.9375 -9.046875 1.101562 -10.160156 1.4375 -11.171875 C 1.769531 -12.179688 2.25 -13.046875 2.875 -13.765625 C 3.507812 -14.492188 4.265625 -15.054688 5.140625 -15.453125 C 6.015625 -15.847656 6.992188 -16.046875 8.078125 -16.046875 C 9.503906 -16.046875 10.726562 -15.722656 11.75 -15.078125 C 12.78125 -14.429688 13.570312 -13.519531 14.125 -12.34375 C 14.6875 -11.164062 14.96875 -9.773438 14.96875 -8.171875 L 14.96875 -7.171875 L 3.65625 -7.171875 L 3.65625 -7.015625 C 3.65625 -6.015625 3.84375 -5.140625 4.21875 -4.390625 C 4.59375 -3.640625 5.125 -3.054688 5.8125 -2.640625 C 6.507812 -2.222656 7.328125 -2.015625 8.265625 -2.015625 C 9.265625 -2.015625 10.109375 -2.242188 10.796875 -2.703125 C 11.492188 -3.171875 11.953125 -3.773438 12.171875 -4.515625 Z M 12.171875 -4.515625 "/></g></g></g><g fill="#ffffff" fill-opacity="1"><g transform="translate(64.397416, 44.223572)"><g><path d="M 8.125 -2.203125 C 9.050781 -2.203125 9.851562 -2.4375 10.53125 -2.90625 C 11.21875 -3.382812 11.75 -4.054688 12.125 -4.921875 C 12.507812 -5.785156 12.703125 -6.796875 12.703125 -7.953125 C 12.703125 -9.109375 12.507812 -10.117188 12.125 -10.984375 C 11.75 -11.847656 11.21875 -12.519531 10.53125 -13 C 9.851562 -13.476562 9.050781 -13.71875 8.125 -13.71875 C 7.226562 -13.71875 6.441406 -13.484375 5.765625 -13.015625 C 5.085938 -12.546875 4.5625 -11.878906 4.1875 -11.015625 C 3.820312 -10.148438 3.640625 -9.128906 3.640625 -7.953125 C 3.640625 -6.773438 3.820312 -5.753906 4.1875 -4.890625 C 4.5625 -4.023438 5.085938 -3.359375 5.765625 -2.890625 C 6.441406 -2.429688 7.226562 -2.203125 8.125 -2.203125 Z M 8.21875 5.953125 C 7.351562 5.953125 6.539062 5.835938 5.78125 5.609375 C 5.019531 5.378906 4.34375 5.050781 3.75 4.625 C 3.15625 4.207031 2.671875 3.71875 2.296875 3.15625 C 1.921875 2.59375 1.675781 1.972656 1.5625 1.296875 L 4.28125 1.296875 C 4.539062 2.015625 5.035156 2.59375 5.765625 3.03125 C 6.492188 3.476562 7.347656 3.703125 8.328125 3.703125 C 9.234375 3.703125 10.015625 3.535156 10.671875 3.203125 C 11.328125 2.878906 11.828125 2.421875 12.171875 1.828125 C 12.523438 1.234375 12.703125 0.546875 12.703125 -0.234375 L 12.703125 -2.71875 L 12.65625 -2.71875 C 12.164062 -1.851562 11.476562 -1.160156 10.59375 -0.640625 C 9.707031 -0.128906 8.707031 0.125 7.59375 0.125 C 6.257812 0.125 5.09375 -0.203125 4.09375 -0.859375 C 3.09375 -1.523438 2.316406 -2.460938 1.765625 -3.671875 C 1.210938 -4.890625 0.9375 -6.316406 0.9375 -7.953125 C 0.9375 -9.597656 1.210938 -11.023438 1.765625 -12.234375 C 2.316406 -13.453125 3.097656 -14.390625 4.109375 -15.046875 C 5.117188 -15.710938 6.300781 -16.046875 7.65625 -16.046875 C 8.769531 -16.046875 9.769531 -15.785156 10.65625 -15.265625 C 11.550781 -14.753906 12.257812 -14.039062 12.78125 -13.125 L 12.828125 -13.125 L 12.828125 -15.78125 L 15.34375 -15.78125 L 15.34375 -0.3125 C 15.34375 0.9375 15.050781 2.03125 14.46875 2.96875 C 13.894531 3.914062 13.070312 4.648438 12 5.171875 C 10.9375 5.691406 9.675781 5.953125 8.21875 5.953125 Z M 8.21875 5.953125 "/></g></g></g><g fill="#ffffff" fill-opacity="1"><g transform="translate(81.45863, 44.223572)"><g><path d="M 1.71875 0 L 1.71875 -15.78125 L 4.203125 -15.78125 L 4.203125 -13.203125 L 4.265625 -13.203125 C 4.523438 -14.066406 4.992188 -14.753906 5.671875 -15.265625 C 6.359375 -15.785156 7.160156 -16.046875 8.078125 -16.046875 C 8.316406 -16.046875 8.53125 -16.03125 8.71875 -16 C 8.90625 -15.976562 9.046875 -15.957031 9.140625 -15.9375 L 9.140625 -13.375 C 9.046875 -13.414062 8.867188 -13.453125 8.609375 -13.484375 C 8.347656 -13.515625 8.054688 -13.53125 7.734375 -13.53125 C 7.054688 -13.53125 6.460938 -13.375 5.953125 -13.0625 C 5.441406 -12.757812 5.046875 -12.332031 4.765625 -11.78125 C 4.492188 -11.226562 4.359375 -10.578125 4.359375 -9.828125 L 4.359375 0 Z M 1.71875 0 "/></g></g></g><g fill="#ffffff" fill-opacity="1"><g transform="translate(90.724686, 44.223572)"><g><path d="M 6.921875 -1.96875 C 7.742188 -1.96875 8.484375 -2.144531 9.140625 -2.5 C 9.804688 -2.851562 10.332031 -3.332031 10.71875 -3.9375 C 11.113281 -4.550781 11.3125 -5.234375 11.3125 -5.984375 L 11.3125 -7.28125 L 7.09375 -7.015625 C 6.03125 -6.953125 5.207031 -6.695312 4.625 -6.25 C 4.050781 -5.800781 3.765625 -5.203125 3.765625 -4.453125 C 3.765625 -3.710938 4.050781 -3.113281 4.625 -2.65625 C 5.195312 -2.195312 5.960938 -1.96875 6.921875 -1.96875 Z M 6.328125 0.265625 C 5.285156 0.265625 4.367188 0.0703125 3.578125 -0.3125 C 2.785156 -0.707031 2.171875 -1.257812 1.734375 -1.96875 C 1.296875 -2.6875 1.078125 -3.515625 1.078125 -4.453125 C 1.078125 -5.804688 1.570312 -6.890625 2.5625 -7.703125 C 3.5625 -8.515625 4.972656 -8.96875 6.796875 -9.0625 L 11.3125 -9.328125 L 11.3125 -10.640625 C 11.3125 -11.609375 11.007812 -12.363281 10.40625 -12.90625 C 9.800781 -13.445312 8.953125 -13.71875 7.859375 -13.71875 C 6.847656 -13.71875 6.03125 -13.492188 5.40625 -13.046875 C 4.78125 -12.609375 4.382812 -12 4.21875 -11.21875 L 1.671875 -11.21875 C 1.734375 -12.132812 2.019531 -12.953125 2.53125 -13.671875 C 3.050781 -14.398438 3.765625 -14.976562 4.671875 -15.40625 C 5.585938 -15.832031 6.671875 -16.046875 7.921875 -16.046875 C 9.148438 -16.046875 10.21875 -15.832031 11.125 -15.40625 C 12.03125 -14.988281 12.726562 -14.394531 13.21875 -13.625 C 13.707031 -12.863281 13.953125 -11.957031 13.953125 -10.90625 L 13.953125 0 L 11.453125 0 L 11.453125 -2.71875 L 11.390625 -2.71875 C 11.078125 -2.113281 10.65625 -1.585938 10.125 -1.140625 C 9.601562 -0.691406 9.015625 -0.34375 8.359375 -0.09375 C 7.710938 0.144531 7.035156 0.265625 6.328125 0.265625 Z M 6.328125 0.265625 "/></g></g></g><g fill="#ffffff" fill-opacity="1"><g transform="translate(106.318082, 44.223572)"><g/></g></g><g fill="#ffffff" fill-opacity="1"><g transform="translate(112.46012, 44.223572)"><g/></g></g><g fill="#ffffff" fill-opacity="1"><g transform="translate(118.613721, 44.223572)"><g><path d="M 25 0 L 20.921875 0 L 20.921875 -14.765625 L 20.796875 -14.765625 L 14.84375 -0.21875 L 11.96875 -0.21875 L 6.015625 -14.765625 L 5.90625 -14.765625 L 5.90625 0 L 1.8125 0 L 1.8125 -21.890625 L 7.125 -21.890625 L 13.34375 -6.375 L 13.46875 -6.375 L 19.6875 -21.890625 L 25 -21.890625 Z M 25 0 "/></g></g></g><g fill="#ffffff" fill-opacity="1"><g transform="translate(145.426368, 44.223572)"><g><path d="M 8.734375 -13.328125 C 8.085938 -13.328125 7.507812 -13.175781 7 -12.875 C 6.5 -12.570312 6.09375 -12.15625 5.78125 -11.625 C 5.476562 -11.101562 5.300781 -10.503906 5.25 -9.828125 L 12.15625 -9.828125 C 12.125 -10.523438 11.957031 -11.132812 11.65625 -11.65625 C 11.363281 -12.1875 10.96875 -12.597656 10.46875 -12.890625 C 9.96875 -13.179688 9.390625 -13.328125 8.734375 -13.328125 Z M 12.203125 -4.96875 L 16.28125 -4.96875 C 16.113281 -3.90625 15.695312 -2.972656 15.03125 -2.171875 C 14.375 -1.378906 13.515625 -0.757812 12.453125 -0.3125 C 11.398438 0.125 10.203125 0.34375 8.859375 0.34375 C 7.191406 0.34375 5.757812 0.00390625 4.5625 -0.671875 C 3.363281 -1.347656 2.441406 -2.3125 1.796875 -3.5625 C 1.160156 -4.820312 0.84375 -6.316406 0.84375 -8.046875 C 0.84375 -9.347656 1.023438 -10.523438 1.390625 -11.578125 C 1.753906 -12.628906 2.273438 -13.523438 2.953125 -14.265625 C 3.640625 -15.015625 4.46875 -15.59375 5.4375 -16 C 6.40625 -16.40625 7.488281 -16.609375 8.6875 -16.609375 C 10.269531 -16.609375 11.632812 -16.269531 12.78125 -15.59375 C 13.9375 -14.925781 14.828125 -13.984375 15.453125 -12.765625 C 16.085938 -11.546875 16.40625 -10.113281 16.40625 -8.46875 L 16.40625 -7.109375 L 5.203125 -7.109375 L 5.203125 -6.84375 C 5.203125 -6.070312 5.351562 -5.390625 5.65625 -4.796875 C 5.96875 -4.203125 6.40625 -3.738281 6.96875 -3.40625 C 7.53125 -3.082031 8.1875 -2.921875 8.9375 -2.921875 C 9.738281 -2.921875 10.429688 -3.109375 11.015625 -3.484375 C 11.609375 -3.859375 12.003906 -4.351562 12.203125 -4.96875 Z M 12.203125 -4.96875 "/></g></g></g><g fill="#ffffff" fill-opacity="1"><g transform="translate(162.66957, 44.223572)"><g><path d="M 1.4375 0 L 1.4375 -16.265625 L 5.71875 -16.265625 L 5.71875 -13.359375 L 5.8125 -13.359375 C 6.25 -14.367188 6.890625 -15.15625 7.734375 -15.71875 C 8.585938 -16.28125 9.640625 -16.5625 10.890625 -16.5625 C 12.085938 -16.5625 13.109375 -16.316406 13.953125 -15.828125 C 14.796875 -15.347656 15.4375 -14.65625 15.875 -13.75 C 16.3125 -12.84375 16.53125 -11.753906 16.53125 -10.484375 L 16.53125 0 L 12.109375 0 L 12.109375 -9.5625 C 12.109375 -10.613281 11.859375 -11.429688 11.359375 -12.015625 C 10.859375 -12.597656 10.109375 -12.890625 9.109375 -12.890625 C 8.453125 -12.890625 7.878906 -12.738281 7.390625 -12.4375 C 6.898438 -12.132812 6.523438 -11.71875 6.265625 -11.1875 C 6.003906 -10.65625 5.875 -10.035156 5.875 -9.328125 L 5.875 0 Z M 1.4375 0 "/></g></g></g><g fill="#ffffff" fill-opacity="1"><g transform="translate(180.564888, 44.223572)"><g><path d="M 2.625 -20 L 7.046875 -20 L 7.046875 -16.265625 L 10.0625 -16.265625 L 10.0625 -12.921875 L 7.046875 -12.921875 L 7.046875 -5.140625 C 7.046875 -3.921875 7.6875 -3.3125 8.96875 -3.3125 C 9.375 -3.3125 9.734375 -3.332031 10.046875 -3.375 L 10.046875 -0.125 C 9.816406 -0.0703125 9.515625 -0.03125 9.140625 0 C 8.773438 0.0390625 8.375 0.0625 7.9375 0.0625 C 6.65625 0.0625 5.625 -0.0820312 4.84375 -0.375 C 4.070312 -0.675781 3.507812 -1.15625 3.15625 -1.8125 C 2.800781 -2.476562 2.625 -3.335938 2.625 -4.390625 L 2.625 -12.921875 L 0.328125 -12.921875 L 0.328125 -16.265625 L 2.625 -16.265625 Z M 2.625 -20 "/></g></g></g><g fill="#ffffff" fill-opacity="1"><g transform="translate(191.37785, 44.223572)"><g><path d="M 8.734375 -13.328125 C 8.085938 -13.328125 7.507812 -13.175781 7 -12.875 C 6.5 -12.570312 6.09375 -12.15625 5.78125 -11.625 C 5.476562 -11.101562 5.300781 -10.503906 5.25 -9.828125 L 12.15625 -9.828125 C 12.125 -10.523438 11.957031 -11.132812 11.65625 -11.65625 C 11.363281 -12.1875 10.96875 -12.597656 10.46875 -12.890625 C 9.96875 -13.179688 9.390625 -13.328125 8.734375 -13.328125 Z M 12.203125 -4.96875 L 16.28125 -4.96875 C 16.113281 -3.90625 15.695312 -2.972656 15.03125 -2.171875 C 14.375 -1.378906 13.515625 -0.757812 12.453125 -0.3125 C 11.398438 0.125 10.203125 0.34375 8.859375 0.34375 C 7.191406 0.34375 5.757812 0.00390625 4.5625 -0.671875 C 3.363281 -1.347656 2.441406 -2.3125 1.796875 -3.5625 C 1.160156 -4.820312 0.84375 -6.316406 0.84375 -8.046875 C 0.84375 -9.347656 1.023438 -10.523438 1.390625 -11.578125 C 1.753906 -12.628906 2.273438 -13.523438 2.953125 -14.265625 C 3.640625 -15.015625 4.46875 -15.59375 5.4375 -16 C 6.40625 -16.40625 7.488281 -16.609375 8.6875 -16.609375 C 10.269531 -16.609375 11.632812 -16.269531 12.78125 -15.59375 C 13.9375 -14.925781 14.828125 -13.984375 15.453125 -12.765625 C 16.085938 -11.546875 16.40625 -10.113281 16.40625 -8.46875 L 16.40625 -7.109375 L 5.203125 -7.109375 L 5.203125 -6.84375 C 5.203125 -6.070312 5.351562 -5.390625 5.65625 -4.796875 C 5.96875 -4.203125 6.40625 -3.738281 6.96875 -3.40625 C 7.53125 -3.082031 8.1875 -2.921875 8.9375 -2.921875 C 9.738281 -2.921875 10.429688 -3.109375 11.015625 -3.484375 C 11.609375 -3.859375 12.003906 -4.351562 12.203125 -4.96875 Z M 12.203125 -4.96875 "/></g></g></g></svg>